<mxfile host="app.diagrams.net" modified="2024-07-06T08:18:12.432Z" agent="Mozilla/5.0 (Windows NT 10.0; Win64; x64) AppleWebKit/537.36 (KHTML, like Gecko) Chrome/109.0.0.0 Safari/537.36" version="24.6.4" etag="kORiy_8BGVr_e5bzrYQt" type="github">
  <diagram name="PÃ¡gina-1" id="jYGCzQtX1QmcqeZM2jpY">
    <mxGraphModel>
      <root>
        <mxCell id="0" />
        <mxCell id="1" parent="0" />
      </root>
    </mxGraphModel>
  </diagram>
</mxfile>
